<svg version="1.1" xmlns="http://www.w3.org/2000/svg" viewBox="0 0 847.3333333333333 882.4999999999995" width="847.3333333333333" height="882.4999999999995" filter="invert(93%) hue-rotate(180deg)">
  <!-- svg-source:excalidraw -->
  
  <defs>
    <style class="style-fonts">
      @font-face {
        font-family: "Virgil";
        src: url("https://excalidraw.com/Virgil.woff2");
      }
      @font-face {
        font-family: "Cascadia";
        src: url("https://excalidraw.com/Cascadia.woff2");
      }
      @font-face {
        font-family: "Assistant";
        src: url("https://excalidraw.com/Assistant-Regular.woff2");
      }
    </style>
    
  </defs>
  <g stroke-linecap="round" transform="translate(183.99999999999994 10) rotate(0 143.33333333333331 54.16666666666663)"><path d="M27.08 0 C119.09 1.72, 211.36 0.04, 259.58 0 M27.08 0 C97.62 1.6, 166.72 0.51, 259.58 0 M259.58 0 C275.81 0.55, 287.66 7.61, 286.67 27.08 M259.58 0 C279.44 -0.3, 284.51 8.03, 286.67 27.08 M286.67 27.08 C286.26 49.46, 285.28 68.99, 286.67 81.25 M286.67 27.08 C286.15 38.93, 285.77 51.67, 286.67 81.25 M286.67 81.25 C285.76 98.88, 276.8 109.45, 259.58 108.33 M286.67 81.25 C288.31 99.49, 278.01 107.43, 259.58 108.33 M259.58 108.33 C174.84 105.64, 87.1 106.99, 27.08 108.33 M259.58 108.33 C196.96 107.41, 135.44 107.08, 27.08 108.33 M27.08 108.33 C8.4 110.26, 1.07 99.64, 0 81.25 M27.08 108.33 C9.69 110.62, -0.1 99.76, 0 81.25 M0 81.25 C0.8 63.64, -1.5 45.22, 0 27.08 M0 81.25 C-1.01 67.78, -1.16 55.03, 0 27.08 M0 27.08 C-0.67 9.6, 9.71 0.39, 27.08 0 M0 27.08 C-1.85 11.09, 8.52 -1.36, 27.08 0" stroke="#1e1e1e" stroke-width="2" fill="none"></path></g><g transform="translate(257.943379720052 51.666666666666515) rotate(0 69.38995361328125 12.5)"><text x="69.38995361328125" y="17.52" font-family="Virgil, Segoe UI Emoji" font-size="20px" fill="#1e1e1e" text-anchor="middle" style="white-space: pre;" direction="ltr" dominant-baseline="alphabetic">GameInstance</text></g><g stroke-linecap="round" transform="translate(550.6666666666666 179.16666666666674) rotate(0 143.33333333333334 54.16666666666663)"><path d="M27.08 0 C89.24 -1.54, 150.41 1.13, 259.58 0 M27.08 0 C114.41 -0.66, 200.04 -0.76, 259.58 0 M259.58 0 C277.97 0.3, 285.44 7.03, 286.67 27.08 M259.58 0 C275.4 -0.51, 288.55 7.73, 286.67 27.08 M286.67 27.08 C286.7 44.3, 287.99 59.99, 286.67 81.25 M286.67 27.08 C286.16 42.81, 285.73 57.01, 286.67 81.25 M286.67 81.25 C288.12 100.97, 278.07 107.85, 259.58 108.33 M286.67 81.25 C285.32 99.4, 279 109.54, 259.58 108.33 M259.58 108.33 C193.64 107.26, 125.17 106.93, 27.08 108.33 M259.58 108.33 C169.42 107.21, 78.72 106.92, 27.08 108.33 M27.08 108.33 C7.53 108.2, 0.36 99.21, 0 81.25 M27.08 108.33 C9.19 108.91, 1.22 97.71, 0 81.25 M0 81.25 C1.12 64.65, 0.98 43.59, 0 27.08 M0 81.25 C0.37 63.96, 0.09 44.28, 0 27.08 M0 27.08 C0.2 7.32, 7.68 -1.22, 27.08 0 M0 27.08 C0.79 9.63, 8.73 1.32, 27.08 0" stroke="#1e1e1e" stroke-width="2" fill="none"></path></g><g transform="translate(645.6400375366211 220.83333333333348) rotate(0 48.359962463378906 12.5)"><text x="48.359962463378906" y="17.52" font-family="Virgil, Segoe UI Emoji" font-size="20px" fill="#1e1e1e" text-anchor="middle" style="white-space: pre;" direction="ltr" dominant-baseline="alphabetic">GameLoop</text></g><g stroke-linecap="round" transform="translate(186.66666666666663 439.1666666666663) rotate(0 143.33333333333331 54.16666666666663)"><path d="M27.08 0 C74.58 0.63, 123.4 -0.04, 259.58 0 M27.08 0 C89.23 2.1, 153.41 1.65, 259.58 0 M259.58 0 C278.41 1.35, 285.61 7.4, 286.67 27.08 M259.58 0 C276.96 0.67, 287.24 10.86, 286.67 27.08 M286.67 27.08 C285.06 43.07, 286.48 58.38, 286.67 81.25 M286.67 27.08 C287.2 42.65, 287.72 55.7, 286.67 81.25 M286.67 81.25 C287.07 97.58, 278.41 107.82, 259.58 108.33 M286.67 81.25 C285.28 97.15, 278.24 107.16, 259.58 108.33 M259.58 108.33 C193.82 110.86, 128.01 109.6, 27.08 108.33 M259.58 108.33 C180.42 106.53, 101.78 106.5, 27.08 108.33 M27.08 108.33 C7.93 110.26, 0.9 97.6, 0 81.25 M27.08 108.33 C9.87 108.9, 2 99.18, 0 81.25 M0 81.25 C0.74 59.05, 0.82 38.84, 0 27.08 M0 81.25 C-0.2 67.55, 0.26 53.04, 0 27.08 M0 27.08 C1.2 9.16, 10.29 -0.71, 27.08 0 M0 27.08 C-0.74 9.73, 8.67 -0.55, 27.08 0" stroke="#1e1e1e" stroke-width="2" fill="none"></path></g><g transform="translate(259.9500579833984 480.83333333333303) rotate(0 70.04994201660156 12.5)"><text x="70.04994201660156" y="17.52" font-family="Virgil, Segoe UI Emoji" font-size="20px" fill="#1e1e1e" text-anchor="middle" style="white-space: pre;" direction="ltr" dominant-baseline="alphabetic">GameResource</text></g><g stroke-linecap="round" transform="translate(10 624.1666666666665) rotate(0 143.33333333333331 54.16666666666663)"><path d="M27.08 0 C114.29 0.74, 205.5 -0.54, 259.58 0 M27.08 0 C99.7 0.06, 173.29 0.45, 259.58 0 M259.58 0 C279.06 1.44, 287.59 7.8, 286.67 27.08 M259.58 0 C276.5 -1.75, 284.45 8.6, 286.67 27.08 M286.67 27.08 C285.56 46.47, 285.34 68.32, 286.67 81.25 M286.67 27.08 C287.15 40.5, 287.57 53.81, 286.67 81.25 M286.67 81.25 C287.88 97.33, 276.73 107.6, 259.58 108.33 M286.67 81.25 C285.26 97.52, 276.49 107.41, 259.58 108.33 M259.58 108.33 C187.99 107.31, 118.23 107.95, 27.08 108.33 M259.58 108.33 C187.83 109.45, 117.98 110.42, 27.08 108.33 M27.08 108.33 C10.1 108.68, 1.56 100.05, 0 81.25 M27.08 108.33 C7.58 110.55, 1.5 98.74, 0 81.25 M0 81.25 C-0.44 71.18, -1.86 57.43, 0 27.08 M0 81.25 C1.34 63.83, 0.42 43.87, 0 27.08 M0 27.08 C0.69 8.2, 9.65 1, 27.08 0 M0 27.08 C-1.07 10.79, 6.91 2.08, 27.08 0" stroke="#1e1e1e" stroke-width="2" fill="none"></path></g><g transform="translate(52.02341969807941 665.833333333333) rotate(0 101.3099136352539 12.5)"><text x="101.3099136352539" y="17.52" font-family="Virgil, Segoe UI Emoji" font-size="20px" fill="#1e1e1e" text-anchor="middle" style="white-space: pre;" direction="ltr" dominant-baseline="alphabetic">StaticGameResource</text></g><g stroke-linecap="round" transform="translate(338.33333333333326 622.4999999999998) rotate(0 143.33333333333331 54.16666666666663)"><path d="M27.08 0 C117.49 -0.52, 207.68 2.45, 259.58 0 M27.08 0 C80.81 0.96, 132.38 1.98, 259.58 0 M259.58 0 C277.47 -0.69, 286.1 10.13, 286.67 27.08 M259.58 0 C279.36 -1.44, 286.47 11.2, 286.67 27.08 M286.67 27.08 C287.43 40.32, 285.85 53.6, 286.67 81.25 M286.67 27.08 C286.21 40.13, 287.21 53.37, 286.67 81.25 M286.67 81.25 C285.97 98.52, 278.78 108.5, 259.58 108.33 M286.67 81.25 C288.31 98.37, 279.25 106.15, 259.58 108.33 M259.58 108.33 C199.53 107.01, 139.11 105.42, 27.08 108.33 M259.58 108.33 C176.2 108.74, 91.49 108.63, 27.08 108.33 M27.08 108.33 C8.19 106.46, 1.14 98.51, 0 81.25 M27.08 108.33 C9.53 108.57, 1.33 97.78, 0 81.25 M0 81.25 C0.49 65.4, -0.74 46.33, 0 27.08 M0 81.25 C0.9 63.56, -0.53 46.18, 0 27.08 M0 27.08 C-1.44 7.58, 10.49 -1.32, 27.08 0 M0 27.08 C-0.86 10.65, 9.44 1.82, 27.08 0" stroke="#1e1e1e" stroke-width="2" fill="none"></path></g><g transform="translate(374.2467524210611 664.1666666666665) rotate(0 107.41991424560547 12.5)"><text x="107.41991424560547" y="17.52" font-family="Virgil, Segoe UI Emoji" font-size="20px" fill="#1e1e1e" text-anchor="middle" style="white-space: pre;" direction="ltr" dominant-baseline="alphabetic">DynamicGameResource</text></g><g stroke-linecap="round" transform="translate(341.33333333333326 764.1666666666663) rotate(0 143.33333333333331 54.16666666666663)"><path d="M27.08 0 C111.87 -0.79, 195.56 -0.84, 259.58 0 M27.08 0 C79.21 0.31, 132.17 0.22, 259.58 0 M259.58 0 C276.24 0.61, 286.6 10.45, 286.67 27.08 M259.58 0 C277.92 1.7, 286.92 8.03, 286.67 27.08 M286.67 27.08 C287.74 40.88, 285.13 57.32, 286.67 81.25 M286.67 27.08 C287.89 43.7, 287.57 59.57, 286.67 81.25 M286.67 81.25 C285.86 100.49, 277.08 108.24, 259.58 108.33 M286.67 81.25 C287.13 98.68, 275.97 106.4, 259.58 108.33 M259.58 108.33 C187.14 106.6, 116.47 109.08, 27.08 108.33 M259.58 108.33 C187.74 110.32, 116.05 109.56, 27.08 108.33 M27.08 108.33 C8.42 108.51, 1.53 99.47, 0 81.25 M27.08 108.33 C10.88 107.2, -0.59 100.2, 0 81.25 M0 81.25 C-1.97 59.06, -0.34 41.11, 0 27.08 M0 81.25 C0.86 63.97, 0.67 47.32, 0 27.08 M0 27.08 C0.88 9.67, 9.48 -0.69, 27.08 0 M0 27.08 C-0.09 10.35, 9.06 -0.93, 27.08 0" stroke="#1e1e1e" stroke-width="2" fill="none"></path></g><g transform="translate(385.73675791422517 805.8333333333329) rotate(0 98.9299087524414 12.5)"><text x="98.9299087524414" y="17.52" font-family="Virgil, Segoe UI Emoji" font-size="20px" fill="#1e1e1e" text-anchor="middle" style="white-space: pre;" direction="ltr" dominant-baseline="alphabetic">PhysicGameResource</text></g><g stroke-linecap="round"><g transform="translate(326.0833333333333 125.77380952380918) rotate(0 0 152.5)"><path d="M-0.8 -0.95 C-0.66 50.14, 1.03 254.72, 1.19 305.63 M0.99 1.17 C1.03 51.99, 1.12 253.11, 0.86 303.84" stroke="#1e1e1e" stroke-width="2" fill="none"></path></g><g transform="translate(326.0833333333333 125.77380952380918) rotate(0 0 152.5)"><path d="M-7.64 280.33 C-6.57 290.19, -1.11 296.29, 0.86 303.84 M-7.64 280.33 C-5.22 285.73, -2.94 292.34, 0.86 303.84" stroke="#1e1e1e" stroke-width="2" fill="none"></path></g><g transform="translate(326.0833333333333 125.77380952380918) rotate(0 0 152.5)"><path d="M9.46 280.37 C4.85 290.1, 4.62 296.18, 0.86 303.84 M9.46 280.37 C7.44 285.77, 5.27 292.37, 0.86 303.84" stroke="#1e1e1e" stroke-width="2" fill="none"></path></g></g><mask></mask><g stroke-linecap="round"><g transform="translate(324.8333333333333 235.77380952380918) rotate(0 108.125 -0.625)"><path d="M-1.18 0.83 C34.96 0.74, 179.43 0.32, 215.84 -0.09 M0.41 0.22 C36.44 -0.22, 178.56 -1.48, 214.68 -1.6" stroke="#1e1e1e" stroke-width="2" fill="none"></path></g><g transform="translate(324.8333333333333 235.77380952380918) rotate(0 108.125 -0.625)"><path d="M191.24 7.1 C197.71 4.75, 203.37 5.29, 214.68 -1.6 M191.24 7.1 C197.87 5.61, 203.22 1.84, 214.68 -1.6" stroke="#1e1e1e" stroke-width="2" fill="none"></path></g><g transform="translate(324.8333333333333 235.77380952380918) rotate(0 108.125 -0.625)"><path d="M191.13 -10 C197.69 -8.62, 203.37 -4.35, 214.68 -1.6 M191.13 -10 C197.8 -6.9, 203.18 -6.08, 214.68 -1.6" stroke="#1e1e1e" stroke-width="2" fill="none"></path></g></g><mask></mask><g stroke-linecap="round"><g transform="translate(309.8333333333333 563.2738095238092) rotate(0 -73.125 26.875)"><path d="M-0.89 -0.8 C-25.2 8.04, -121.8 45.21, -146.03 54.13 M0.85 1.4 C-23.59 10.37, -122.21 43.52, -146.86 52.21" stroke="#1e1e1e" stroke-width="2" fill="none"></path></g><g transform="translate(309.8333333333333 563.2738095238092) rotate(0 -73.125 26.875)"><path d="M-127.43 36.49 C-134.14 41.19, -137.7 45.25, -146.86 52.21 M-127.43 36.49 C-131.68 39.47, -136.25 44.08, -146.86 52.21" stroke="#1e1e1e" stroke-width="2" fill="none"></path></g><g transform="translate(309.8333333333333 563.2738095238092) rotate(0 -73.125 26.875)"><path d="M-121.87 52.66 C-130.32 52.71, -135.46 52.18, -146.86 52.21 M-121.87 52.66 C-127.19 52.14, -132.97 53.23, -146.86 52.21" stroke="#1e1e1e" stroke-width="2" fill="none"></path></g></g><mask></mask><g stroke-linecap="round"><g transform="translate(328.5833333333333 562.0238095238092) rotate(0 81.875 25.625)"><path d="M-1.06 -0.69 C26.54 8.03, 137.45 43.6, 164.86 52.09 M0.58 1.56 C28.19 9.98, 137.51 42.17, 164.5 50.41" stroke="#1e1e1e" stroke-width="2" fill="none"></path></g><g transform="translate(328.5833333333333 562.0238095238092) rotate(0 81.875 25.625)"><path d="M139.54 51.87 C144.28 53.6, 152.72 50.87, 164.5 50.41 M139.54 51.87 C144.48 51.77, 151.3 51.74, 164.5 50.41" stroke="#1e1e1e" stroke-width="2" fill="none"></path></g><g transform="translate(328.5833333333333 562.0238095238092) rotate(0 81.875 25.625)"><path d="M144.45 35.48 C148 41.04, 155.28 42.17, 164.5 50.41 M144.45 35.48 C148.19 38.9, 153.95 42.4, 164.5 50.41" stroke="#1e1e1e" stroke-width="2" fill="none"></path></g></g><mask></mask><g stroke-linecap="round"><g transform="translate(484.8333333333333 730.7738095238092) rotate(0 0 16.875)"><path d="M0.48 -0.53 C0.54 5.14, 0.1 27.84, 0.04 33.57 M0.06 0.39 C0.08 6.18, -0.33 28.49, -0.37 34.18" stroke="#1e1e1e" stroke-width="2" fill="none"></path></g><g transform="translate(484.8333333333333 730.7738095238092) rotate(0 0 16.875)"><path d="M-5.94 18.25 C-5.44 22.2, -3.54 26.22, -0.37 34.18 M-5.94 18.25 C-4.09 23.11, -2.13 28.39, -0.37 34.18" stroke="#1e1e1e" stroke-width="2" fill="none"></path></g><g transform="translate(484.8333333333333 730.7738095238092) rotate(0 0 16.875)"><path d="M5.61 18.4 C3.26 22.36, 2.33 26.35, -0.37 34.18 M5.61 18.4 C3.76 23.23, 2.02 28.46, -0.37 34.18" stroke="#1e1e1e" stroke-width="2" fill="none"></path></g></g><mask></mask></svg>